{"title":"Stronger 2017 (1080p Bluray x265 HEVC 10bit AAC 5.1 Tigole)","magnet":"magnet:?xt=urn:btih:ebcd760a1c8c957662164b04f1a56ab2761904fe&dn=Stronger+2017+%281080p+Bluray+x265+HEVC+10bit+AAC+5.1+Tigole%29&tr=udp%3A%2F%2Ftracker.leechers-paradise.org%3A6969&tr=udp%3A%2F%2Fzer0day.ch%3A1337&tr=udp%3A%2F%2Fopen.demonii.com%3A1337&tr=udp%3A%2F%2Ftracker.coppersurfer.tk%3A6969&tr=udp%3A%2F%2Fexodus.desync.com%3A6969","uploader":"UTRplus","categoryP":"video","categoryS":"hd___movies","size":"4416533172","seeders":"38","leechers":"36","description":"Stronger 2017 in 1080p, encoded with x265 in HEVC and AAC 5.1 English, with English and Spanish subtitles! \r\nEncoded using the time consuming 2 pass, 10 bit color at 4171 kbps, from a Blu-ray source, for the highest quality possible. \r\n\r\nMedia Information\r\nGeneral \r\nFormat : Matroska \r\nFormat version : Version 4 / Version 2 \r\nFile size : 3.79 GiB \r\nDuration : 1 h 58 min \r\n\r\nVideo \r\nID : 1 \r\nFormat : HEVC \r\nFormat/Info : High Efficiency Video Coding \r\nFormat profile : Main <a href=\"/cdn-cgi/l/email-protection\" class=\"__cf_email__\" data-cfemail=\"655455252951\">[email&#xA0;protected]</a>@Main \r\nCodec ID : V_MPEGH/ISO/HEVC \r\nDuration : 1 h 58 min \r\nBit rate : 4 171 kb/s \r\nWidth : 1 920 pixels \r\nHeight : 804 pixels \r\nDisplay aspect ratio : 2.40:1 \r\nFrame rate mode : Constant \r\nFrame rate : 23.976 (24000/1001) FPS \r\nBit depth : 10 bits \r\nStream size : 3.46 GiB (91%) \r\nDefault : Yes \r\nForced : No \r\n\r\nAudio \r\nID : 2 \r\nFormat : AAC \r\nFormat/Info : Advanced Audio Codec \r\nFormat profile : LC \r\nCodec ID : A_AAC \r\nDuration : 1 h 58 min \r\nBit rate : 376 kb/s \r\nChannel(s) : 6 channels \r\nChannel positions : Front: L C R, Side: L R, LFE \r\nSampling rate : 48.0 kHz \r\nFrame rate : 46.875 FPS (1024 spf) \r\nCompression mode : Lossy \r\nDelay relative to video : 20 ms \r\nStream size : 320 MiB (8%) \r\nLanguage : English \r\nDefault : Yes \r\nForced : No","last_updated":"2017-12-16T12:02:30.913Z","parsed":{"xt":"urn:btih:ebcd760a1c8c957662164b04f1a56ab2761904fe","dn":"Stronger 2017 (1080p Bluray x265 HEVC 10bit AAC 5.1 Tigole)","tr":["udp://exodus.desync.com:6969","udp://open.demonii.com:1337","udp://tracker.coppersurfer.tk:6969","udp://tracker.leechers-paradise.org:6969","udp://zer0day.ch:1337"],"infoHash":"ebcd760a1c8c957662164b04f1a56ab2761904fe","infoHashBuffer":{"type":"Buffer","data":[235,205,118,10,28,140,149,118,98,22,75,4,241,165,106,178,118,25,4,254]},"name":"Stronger 2017 (1080p Bluray x265 HEVC 10bit AAC 5.1 Tigole)","announce":["udp://exodus.desync.com:6969","udp://open.demonii.com:1337","udp://tracker.coppersurfer.tk:6969","udp://tracker.leechers-paradise.org:6969","udp://zer0day.ch:1337"],"urlList":[]}}